<?xml version="1.0" standalone="no"?>
<!DOCTYPE svg PUBLIC "-//W3C//DTD SVG 20010904//EN"
 "http://www.w3.org/TR/2001/REC-SVG-20010904/DTD/svg10.dtd">
<svg version="1.0" xmlns="http://www.w3.org/2000/svg"
 width="460.000000pt" height="460.000000pt" viewBox="0 0 460.000000 460.000000"
 preserveAspectRatio="xMidYMid meet">

<g transform="translate(0.000000,460.000000) scale(0.100000,-0.100000)"
fill="white" stroke="none">
<path d="M2130 3629 c-306 -47 -541 -158 -745 -353 -79 -76 -80 -76 -110 -62
-16 8 -52 24 -80 36 -169 74 -237 105 -292 131 -34 16 -64 29 -67 29 -6 0 -92
39 -222 101 -49 23 -110 44 -135 47 -86 8 -92 -33 -37 -258 26 -107 48 -159
100 -235 25 -36 41 -70 40 -85 -1 -14 11 -100 27 -192 32 -184 55 -242 144
-345 37 -43 45 -60 50 -105 13 -131 74 -292 148 -392 28 -39 29 -43 29 -160 0
-174 38 -360 99 -491 132 -282 371 -494 671 -594 166 -56 169 -56 790 -56 647
0 618 -3 780 78 152 76 288 232 344 397 32 96 36 176 36 810 0 720 -5 796 -63
955 -18 51 -107 238 -116 245 -3 3 -33 41 -66 84 -164 217 -423 364 -720 411
-100 16 -510 19 -605 4z m625 -134 c139 -29 330 -105 380 -152 11 -10 40 -33
65 -50 25 -17 74 -64 110 -103 82 -92 72 -77 157 -227 54 -95 103 -286 103
-403 l0 -39 -470 -3 c-402 -3 -471 -5 -483 -18 -7 -8 -26 -44 -42 -80 -35 -83
-112 -250 -125 -272 -6 -10 -10 -22 -10 -28 0 -10 -78 -181 -110 -241 -22 -41
-34 -109 -23 -126 8 -11 260 -134 304 -148 13 -4 84 -36 157 -71 74 -35 136
-64 138 -64 5 0 125 -55 230 -106 115 -56 124 -56 234 18 99 66 185 118 194
118 10 0 6 -232 -4 -280 -31 -138 -119 -270 -227 -342 -92 -62 -117 -73 -198
-93 -62 -15 -132 -16 -645 -12 l-575 4 -85 26 c-145 46 -274 117 -376 205 -50
44 -101 93 -112 108 -12 16 -25 34 -30 39 -106 132 -179 316 -203 507 -7 59
-10 110 -6 114 3 3 28 -7 54 -23 26 -15 71 -39 98 -52 28 -13 57 -27 65 -31
50 -24 163 -45 250 -44 124 0 211 23 330 87 189 100 309 268 353 493 20 101
20 110 5 202 -16 102 -61 223 -106 291 -88 131 -193 211 -387 295 -60 27 -148
66 -195 88 -47 22 -95 44 -107 49 -13 5 -23 12 -23 17 0 13 97 103 150 139
168 114 305 171 495 207 103 20 577 21 670 1z m-2129 -128 c38 -19 98 -47 134
-62 101 -44 259 -114 326 -146 34 -16 64 -29 68 -29 3 0 61 -27 130 -59 69
-33 135 -62 148 -66 13 -4 61 -25 108 -47 76 -36 168 -77 285 -126 22 -9 73
-45 112 -80 159 -138 235 -361 189 -553 -15 -63 -65 -179 -77 -179 -4 0 -11
-9 -14 -21 -11 -33 -71 -94 -139 -142 -137 -97 -306 -131 -458 -92 -97 26
-232 97 -304 162 -89 80 -194 272 -194 353 0 22 7 20 106 -25 129 -60 163 -74
227 -100 38 -15 69 -25 70 -23 23 38 47 88 47 95 0 10 -94 63 -112 63 -6 0
-38 13 -72 29 -154 73 -258 121 -265 121 -15 0 -139 137 -158 175 -11 22 -25
63 -32 90 -18 83 -30 150 -26 153 2 2 32 -10 67 -26 82 -39 163 -76 263 -119
44 -20 125 -57 180 -83 55 -26 118 -53 140 -60 22 -7 54 -21 70 -30 62 -34 63
-34 92 26 14 30 24 56 22 57 -13 9 -178 85 -199 92 -14 4 -63 25 -110 47 -47
22 -121 56 -165 75 -220 95 -288 134 -355 202 -36 37 -72 76 -80 86 -43 56
-120 275 -97 275 2 0 35 -15 73 -33z m2942 -1344 l-3 -367 -153 -98 c-84 -54
-159 -98 -167 -98 -16 0 -65 21 -207 89 -59 28 -110 51 -113 51 -4 0 -34 13
-68 29 -161 76 -238 111 -241 111 -2 0 -43 18 -90 41 l-86 40 15 28 c29 57
108 227 120 261 7 19 34 80 60 135 26 55 51 110 56 123 l9 22 435 0 435 0 -2
-367z"/>
<path d="M3335 2182 c-38 -21 -104 -58 -145 -82 -41 -23 -133 -76 -205 -116
-71 -40 -131 -77 -133 -83 -3 -10 24 -76 40 -98 7 -8 24 -3 66 21 31 18 77 45
102 58 25 14 97 55 160 92 63 36 118 66 123 66 4 0 33 17 65 37 31 21 59 38
60 39 5 3 -52 104 -58 104 -3 -1 -36 -18 -75 -38z"/>
</g>
</svg>
